<svg xmlns="http://www.w3.org/2000/svg" viewBox="0 0 24 24"><path d="M20.216 6.415l-.132-.666c-.119-.598-.388-1.163-1.001-1.379-.197-.069-.42-.098-.57-.241-.152-.143-.196-.366-.231-.572-.065-.378-.125-.756-.192-1.133-.057-.325-.102-.69-.25-.987-.195-.4-.597-.634-.996-.788a5.723 5.723 0 00-.626-.194c-1-.263-2.05-.36-3.077-.416a25.834 25.834 0 00-3.7.062c-.915.083-1.88.184-2.75.5-.318.116-.646.256-.888.501-.297.302-.393.77-.177 1.146.154.267.415.456.692.58.36.162.737.284 1.123.366 1.075.238 2.189.331 3.287.37 1.218.05 2.437.01 3.65-.118.299-.033.598-.073.896-.119.352-.054.578-.513.474-.834-.124-.383-.457-.531-.834-.473-.466.074-.96.108-1.382.146-1.177.08-2.358.082-3.536.006a22.228 22.228 0 01-1.157-.107c-.086-.01-.18-.025-.258-.036-.243-.036-.484-.08-.724-.13-.111-.027-.111-.185 0-.212h.005c.277-.06.557-.108.838-.147h.002c.131-.009.263-.032.394-.048a25.076 25.076 0 013.426-.12c.674.019 1.347.067 2.017.144l.228.031c.267.04.533.088.798.145.392.085.895.113 1.07.542.055.137.08.288.111.431l.319 1.484a.237.237 0 01-.199.284h-.003c-.037.006-.075.01-.112.015a36.704 36.704 0 01-4.743.295 37.059 37.059 0 01-4.699-.304c-.14-.017-.293-.042-.417-.06-.326-.048-.649-.108-.973-.161-.393-.065-.768-.032-1.123.161-.29.16-.527.404-.675.701-.154.316-.199.66-.267 1-.069.34-.176.707-.135 1.056.087.753.613 1.365 1.37 1.502a39.69 39.69 0 0011.343.376.483.483 0 01.535.53l-.071.697-1.018 9.907c-.041.41-.047.832-.125 1.237-.122.637-.553 1.028-1.182 1.171-.577.131-1.165.2-1.756.205-.656.004-1.305-.061-1.95-.19-.534-.107-.884-.525-.997-1.063-.09-.432-.1-.876-.14-1.313l-.816-7.94a.26.26 0 00-.26-.24.26.26 0 00-.26.26v.01l.854 8.318c.058.482.126.965.238 1.436.2.827.786 1.348 1.596 1.543.755.182 1.529.264 2.303.238.775-.022 1.543-.122 2.28-.374.82-.279 1.28-.9 1.388-1.757.048-.396.063-.796.098-1.194l.985-9.587.018-.167a.088.088 0 01.076-.075c.086-.012.168-.036.249-.06.203-.061.403-.133.6-.21a4.068 4.068 0 001.921-1.598c.399-.7.58-1.487.62-2.302.033-.678-.07-1.37-.396-1.987z" fill="black"/></svg>
