<svg xmlns="http://www.w3.org/2000/svg" viewBox="0 0 413 442" fill="none" style="shape-rendering:geometricPrecision; fill-rule:evenodd; clip-rule:evenodd">
<g><path style="opacity:1" fill="currentColor" d="M 376.5,-0.5 C 378.833,-0.5 381.167,-0.5 383.5,-0.5C 387.724,1.9593 389.224,5.62597 388,10.5C 381.699,21.607 374.532,32.107 366.5,42C 351.445,53.3877 336.112,64.3877 320.5,75C 316.018,80.316 311.352,85.4827 306.5,90.5C 324.509,87.7996 342.676,84.4662 361,80.5C 368.081,82.5615 370.081,86.8948 367,93.5C 343.901,115.457 318.734,134.624 291.5,151C 285.419,161.832 279.085,172.498 272.5,183C 251.591,188.049 230.591,192.715 209.5,197C 196.453,210.378 183.786,224.044 171.5,238C 183.987,252.489 196.487,266.989 209,281.5C 209.667,283.5 209.667,285.5 209,287.5C 205.911,288.96 203.078,290.793 200.5,293C 202.667,295.833 204.833,298.667 207,301.5C 208.885,303.914 209.552,306.581 209,309.5C 203.541,316.627 197.708,323.461 191.5,330C 193.994,346.786 196.494,363.62 199,380.5C 207.5,389 216,397.5 224.5,406C 248.668,415.166 273.001,423.499 297.5,431C 284.37,411.239 270.87,391.739 257,372.5C 240.305,382.328 226.305,379.328 215,363.5C 208.258,344.049 214.424,330.549 233.5,323C 253.054,320.77 264.721,329.27 268.5,348.5C 271.777,348.784 274.943,348.451 278,347.5C 290.375,327.249 302.875,307.083 315.5,287C 304.519,288.441 293.519,289.774 282.5,291C 274.667,285.167 266.833,279.333 259,273.5C 253.923,260.192 250.589,246.526 249,232.5C 256.358,223.309 263.525,213.976 270.5,204.5C 313.086,195.949 355.753,188.115 398.5,181C 402.085,183.528 402.418,186.528 399.5,190C 358.19,197.795 316.857,205.462 275.5,213C 269.5,221 263.5,229 257.5,237C 261.049,247.357 264.215,257.857 267,268.5C 272.5,272.667 278,276.833 283.5,281C 325,275.027 366.334,267.861 407.5,259.5C 409.36,260.26 411.027,261.26 412.5,262.5C 412.5,264.167 412.5,265.833 412.5,267.5C 411.118,268.801 409.452,269.634 407.5,270C 381.146,274.559 354.812,279.226 328.5,284C 313.291,307.581 298.458,331.415 284,355.5C 283.25,356.126 282.416,356.626 281.5,357C 277.167,357.333 272.833,357.667 268.5,358C 265.61,361.197 264.777,364.697 266,368.5C 280.057,388.226 293.724,408.226 307,428.5C 308.429,434.3 306.596,438.633 301.5,441.5C 299.167,441.5 296.833,441.5 294.5,441.5C 270.046,432.402 245.379,423.568 220.5,415C 210.333,404.833 200.167,394.667 190,384.5C 186.268,364.981 183.935,345.314 183,325.5C 188.316,319.35 193.816,313.35 199.5,307.5C 196.878,303.543 193.878,299.876 190.5,296.5C 177.619,301.96 164.619,307.127 151.5,312C 133.5,323.333 115.5,334.667 97.5,346C 94.9699,347.422 92.3033,347.755 89.5,347C 79.6593,340.58 69.9926,333.913 60.5,327C 57.8333,324 57.8333,321 60.5,318C 77.6645,308.252 94.6645,298.252 111.5,288C 112.689,285.122 114.022,282.288 115.5,279.5C 113.667,279.167 111.833,278.833 110,278.5C 79.8284,280.81 49.9951,284.977 20.5,291C 19.0692,290.535 17.9025,289.701 17,288.5C 10.0476,272.801 4.21428,256.801 -0.5,240.5C -0.5,239.833 -0.5,239.167 -0.5,238.5C 2.01546,234.556 5.68213,232.056 10.5,231C 25.8333,216.333 41.1667,201.667 56.5,187C 70.5678,178.298 85.2345,170.632 100.5,164C 107.833,151.667 115.167,139.333 122.5,127C 136.757,123.748 151.09,120.748 165.5,118C 186.068,95.5219 206.401,72.8552 226.5,50C 276.709,33.4308 326.709,16.5975 376.5,-0.5 Z M 376.5,9.5 C 377.525,9.89657 377.692,10.5632 377,11.5C 371.463,18.7391 366.296,26.2391 361.5,34C 346.01,45.5782 330.343,56.9115 314.5,68C 305.833,77 297.167,86 288.5,95C 252.865,101.355 217.365,108.188 182,115.5C 181.333,114.833 181.333,114.167 182,113.5C 199.059,95.4451 215.725,77.1118 232,58.5C 280.297,42.2538 328.463,25.9204 376.5,9.5 Z M 352.5,91.5 C 353.239,91.369 353.906,91.5357 354.5,92C 332.859,111.646 309.525,128.979 284.5,144C 278.5,154.333 272.5,164.667 266.5,175C 257.576,177.285 248.576,179.118 239.5,180.5C 237.115,167.744 234.282,155.077 231,142.5C 230.25,141.874 229.416,141.374 228.5,141C 212.423,142.88 196.423,145.547 180.5,149C 179.667,149.833 178.833,150.667 178,151.5C 170.83,167.838 163.664,184.172 156.5,200.5C 156.632,202.601 157.632,204.101 159.5,205C 169.167,205.333 178.833,205.667 188.5,206C 179.782,215.263 170.948,224.429 162,233.5C 160.578,236.03 160.245,238.697 161,241.5C 173.189,255.353 185.689,268.853 198.5,282C 181.527,290.105 164.194,297.438 146.5,304C 129.003,315.918 111.003,327.085 92.5,337.5C 85.3624,332.862 78.3624,328.028 71.5,323C 87.1667,313.5 102.833,304 118.5,294.5C 123.36,287.072 126.526,279.072 128,270.5C 126.818,268.643 125.151,267.643 123,267.5C 90.4213,270.031 58.088,274.364 26,280.5C 25.1667,280.167 24.3333,279.833 23.5,279.5C 18.1575,266.806 13.8241,253.806 10.5,240.5C 12.6547,240.628 14.6547,240.128 16.5,239C 31.1953,223.971 46.1953,209.304 61.5,195C 76.2349,185.965 91.5682,177.965 107.5,171C 114.752,159.164 121.752,147.164 128.5,135C 203.436,121.179 278.103,106.679 352.5,91.5 Z M 220.5,150.5 C 222.124,150.36 223.29,151.027 224,152.5C 226.645,162.746 228.812,173.079 230.5,183.5C 221.719,184.756 213.052,186.59 204.5,189C 202.167,191.333 199.833,193.667 197.5,196C 187.833,196.667 178.167,196.667 168.5,196C 173.973,183.25 179.639,170.583 185.5,158C 197.293,155.485 208.959,152.985 220.5,150.5 Z M 235.5,331.5 C 252.755,331.248 260.255,339.581 258,356.5C 251.017,369.118 241.184,371.951 228.5,365C 217.628,351.108 219.962,339.941 235.5,331.5 Z"/></g>
<g><path style="opacity:1" fill="currentColor" d="M 395.5,207.5 C 399.007,206.994 402.174,207.66 405,209.5C 406.414,213.752 404.914,216.252 400.5,217C 369.5,222.667 338.5,228.333 307.5,234C 304.833,234.667 302.167,234.667 299.5,234C 296.488,229.726 297.488,226.726 302.5,225C 333.693,219.46 364.693,213.626 395.5,207.5 Z"/></g>
<g><path style="opacity:1" fill="currentColor" d="M 87.5,211.5 C 89.8568,211.337 92.1902,211.503 94.5,212C 100.969,217.468 107.136,223.301 113,229.5C 113.833,234.667 111.667,236.833 106.5,236C 101.635,230.8 96.4681,225.967 91,221.5C 86.2619,226.116 81.4285,230.616 76.5,235C 70.7857,237.4 68.2857,235.566 69,229.5C 75.0619,223.27 81.2286,217.27 87.5,211.5 Z"/></g>
<g><path style="opacity:1" fill="currentColor" d="M 399.5,233.5 C 405.986,231.835 408.819,234.168 408,240.5C 407.5,241.667 406.667,242.5 405.5,243C 371.909,249.453 338.242,255.12 304.5,260C 301.461,256.195 302.128,253.195 306.5,251C 337.741,245.717 368.741,239.884 399.5,233.5 Z"/></g>
<g><path style="opacity:1" fill="currentColor" d="M 238.5,342.5 C 245.685,342.848 248.519,346.515 247,353.5C 243.584,357.856 239.584,358.522 235,355.5C 232.188,349.893 233.355,345.559 238.5,342.5 Z"/></g>
</svg>
