<svg xmlns="http://www.w3.org/2000/svg" viewBox="0 0 411 442" fill="none" style="shape-rendering:geometricPrecision; fill-rule:evenodd; clip-rule:evenodd">
<g transform="translate(411,0) scale(-1,1)">
<g><path style="opacity:1" fill="currentColor" d="M 369.5,-0.5 C 372.167,-0.5 374.833,-0.5 377.5,-0.5C 380.904,1.97495 382.404,5.30829 382,9.5C 376.699,18.8133 371.366,28.1466 366,37.5C 349.735,51.1004 332.902,63.9337 315.5,76C 311.2,81.3012 306.534,86.3012 301.5,91C 319.699,88.0273 337.866,84.5273 356,80.5C 363.058,82.5453 365.058,86.8786 362,93.5C 339.793,115.72 315.293,134.887 288.5,151C 282.753,161.829 276.753,172.495 270.5,183C 249.661,188.301 228.661,192.968 207.5,197C 194.5,210.667 181.5,224.333 168.5,238C 181.333,252.167 194.167,266.333 207,280.5C 207.711,282.899 207.544,285.232 206.5,287.5C 203.376,288.703 200.709,290.536 198.5,293C 201.318,297.156 204.152,301.323 207,305.5C 207.667,307.167 207.667,308.833 207,310.5C 202.367,316.135 197.367,321.468 192,326.5C 191.015,328.366 190.515,330.366 190.5,332.5C 192.503,348.525 194.67,364.525 197,380.5C 205.5,389 214,397.5 222.5,406C 246.657,415.162 270.99,423.496 295.5,431C 282.37,411.239 268.87,391.739 255,372.5C 240.01,381.87 226.676,379.87 215,366.5C 209.433,356.328 209.099,345.994 214,335.5C 221.742,324.691 232.242,320.525 245.5,323C 257.796,327.13 264.796,335.63 266.5,348.5C 269.572,348.817 272.572,348.484 275.5,347.5C 287.791,327.081 300.458,306.914 313.5,287C 302.2,288.55 290.867,289.883 279.5,291C 271.394,285.195 263.561,279.028 256,272.5C 252.422,260.356 248.922,248.189 245.5,236C 252.415,224.856 260.081,214.189 268.5,204C 311.158,195.934 353.825,188.267 396.5,181C 399.379,182.666 400.212,185.166 399,188.5C 398.25,189.126 397.416,189.626 396.5,190C 355.55,197.923 314.55,205.59 273.5,213C 266.765,220.481 260.765,228.481 255.5,237C 258.536,247.109 261.37,257.276 264,267.5C 269.833,272 275.667,276.5 281.5,281C 322.962,274.812 364.295,267.645 405.5,259.5C 407.815,260.16 409.481,261.493 410.5,263.5C 410.5,264.5 410.5,265.5 410.5,266.5C 409.31,268.826 407.31,269.993 404.5,270C 378.5,274.667 352.5,279.333 326.5,284C 311.318,308.71 295.652,333.043 279.5,357C 274.914,357.197 270.414,357.697 266,358.5C 264.374,361.058 263.374,363.725 263,366.5C 277,387.167 291,407.833 305,428.5C 306.329,434.722 304.163,439.055 298.5,441.5C 296.5,441.5 294.5,441.5 292.5,441.5C 267.56,432.461 242.56,423.295 217.5,414C 207.667,404.167 197.833,394.333 188,384.5C 184.431,364.953 182.098,345.286 181,325.5C 186.5,319.333 192,313.167 197.5,307C 195.052,302.885 192.219,299.052 189,295.5C 175.012,301.72 160.845,307.553 146.5,313C 130.73,321.635 114.897,330.135 99,338.5C 79.864,334.206 60.6974,330.039 41.5,326C 32.2923,312.421 23.4589,298.588 15,284.5C 9.20613,270.275 4.03947,255.941 -0.5,241.5C -0.5,240.167 -0.5,238.833 -0.5,237.5C 2.01924,234.469 5.35258,232.636 9.5,232C 24.8619,216.304 40.5286,200.971 56.5,186C 70.8515,177.823 85.5182,170.157 100.5,163C 107.261,150.804 114.261,138.804 121.5,127C 135.757,123.748 150.09,120.748 164.5,118C 183.756,94.7397 203.756,72.073 224.5,50C 273.13,33.6251 321.463,16.7918 369.5,-0.5 Z M 369.5,9.5 C 370.239,9.36899 370.906,9.53566 371.5,10C 366.602,17.2379 362.102,24.7379 358,32.5C 342.435,44.6985 326.601,56.5319 310.5,68C 302.167,77 293.833,86 285.5,95C 250.22,101.456 215.053,108.29 180,115.5C 179.333,114.833 179.333,114.167 180,113.5C 196.167,95.3333 212.333,77.1667 228.5,59C 275.862,43.1592 322.862,26.6592 369.5,9.5 Z M 347.5,91.5 C 348.552,91.3505 349.552,91.5172 350.5,92C 342.833,99 335.167,106 327.5,113C 311.404,123.798 295.57,134.964 280,146.5C 274.96,156.08 269.794,165.58 264.5,175C 255.582,177.313 246.582,179.147 237.5,180.5C 235.162,168.813 232.662,157.146 230,145.5C 228.551,140.782 225.385,139.282 220.5,141C 206.503,143.666 192.503,146.333 178.5,149C 176.383,150.731 174.883,152.898 174,155.5C 167.5,170.5 161,185.5 154.5,200.5C 155.128,202.258 156.128,203.758 157.5,205C 167.167,205.333 176.833,205.667 186.5,206C 176.012,216.174 166.346,227.008 157.5,238.5C 170.5,253.167 183.5,267.833 196.5,282.5C 180.71,289.486 164.71,295.986 148.5,302C 131.358,310.069 114.692,318.903 98.5,328.5C 82.1633,325.066 65.8299,321.566 49.5,318C 41.7566,309.706 35.0899,300.54 29.5,290.5C 43.6177,282.517 58.7843,277.85 75,276.5C 89.1688,277.721 102.002,282.387 113.5,290.5C 118.222,289.3 119.389,286.634 117,282.5C 98.4859,268.748 77.9859,264.581 55.5,270C 45.0685,273.132 34.9018,276.966 25,281.5C 23.1157,279.55 21.7824,277.216 21,274.5C 17.1615,263.65 13.3281,252.817 9.5,242C 11.3772,240.815 13.3772,239.815 15.5,239C 30.5821,223.583 45.9154,208.583 61.5,194C 76.0625,185.552 91.0625,177.885 106.5,171C 113.752,159.164 120.752,147.164 127.5,135C 201.102,121.179 274.435,106.679 347.5,91.5 Z M 218.5,150.5 C 219.5,150.5 220.5,150.5 221.5,150.5C 224.323,161.111 226.49,171.778 228,182.5C 220.292,184.718 212.459,186.551 204.5,188C 200.59,189.907 197.256,192.573 194.5,196C 185.167,196.667 175.833,196.667 166.5,196C 172.385,183.683 177.885,171.183 183,158.5C 194.883,155.626 206.716,152.959 218.5,150.5 Z M 233.5,331.5 C 246.93,330.707 254.93,336.874 257.5,350C 255.667,361.167 249.167,367.667 238,369.5C 221.245,365.323 216.245,355.323 223,339.5C 225.975,335.952 229.475,333.286 233.5,331.5 Z"/></g>
<g><path style="opacity:1" fill="currentColor" d="M 393.5,207.5 C 396.448,207.223 399.281,207.556 402,208.5C 404.289,212.755 403.122,215.589 398.5,217C 367.52,222.774 336.52,228.441 305.5,234C 302.5,234.667 299.5,234.667 296.5,234C 293.912,229.495 295.245,226.495 300.5,225C 331.715,219.578 362.715,213.745 393.5,207.5 Z"/></g>
<g><path style="opacity:1" fill="currentColor" d="M 68.5,226.5 C 71.2257,226.264 73.559,227.097 75.5,229C 79.6816,233.349 84.0149,237.515 88.5,241.5C 93.7096,236.453 99.043,231.62 104.5,227C 109.859,225.857 112.026,228.024 111,233.5C 105.469,239.366 99.6353,244.866 93.5,250C 90.1667,252 86.8333,252 83.5,250C 78.3017,244.467 72.8017,239.3 67,234.5C 64.8993,231.312 65.3993,228.645 68.5,226.5 Z"/></g>
<g><path style="opacity:1" fill="currentColor" d="M 398.5,233.5 C 404.168,232.671 406.668,235.005 406,240.5C 405.097,241.701 403.931,242.535 402.5,243C 368.952,249.711 335.285,255.378 301.5,260C 298.248,255.594 299.248,252.594 304.5,251C 336.028,245.47 367.362,239.637 398.5,233.5 Z"/></g>
<g><path style="opacity:1" fill="currentColor" d="M 235.5,342.5 C 242.657,342.155 245.824,345.488 245,352.5C 241.455,358.209 237.121,358.875 232,354.5C 229.972,349.558 231.139,345.558 235.5,342.5 Z"/></g>
</g>
</svg>
